<svg xmlns="http://www.w3.org/2000/svg" xmlns:xlink="http://www.w3.org/1999/xlink" width="1920" zoomAndPan="magnify" viewBox="0 0 1440 374.999991" height="500" preserveAspectRatio="xMidYMid meet" version="1.0"><defs><g/></defs><g fill="#d9d9d9" fill-opacity="0.4"><g transform="translate(236.100361, 223.940743)"><g><path d="M 54.234375 -21.75 C 54.234375 -14.476562 51.878906 -9.035156 47.171875 -5.421875 C 42.472656 -1.804688 35.789062 0 27.125 0 L 2.859375 0 L 2.859375 -76.109375 L 25.78125 -76.109375 C 28.96875 -76.109375 32.097656 -75.84375 35.171875 -75.3125 C 38.242188 -74.789062 40.992188 -73.8125 43.421875 -72.375 C 45.847656 -70.9375 47.816406 -68.941406 49.328125 -66.390625 C 50.847656 -63.847656 51.609375 -60.515625 51.609375 -56.390625 C 51.609375 -48.503906 47.664062 -43.117188 39.78125 -40.234375 C 49.414062 -37.285156 54.234375 -31.125 54.234375 -21.75 Z M 43.625 -56.390625 C 43.625 -59.078125 43.054688 -61.273438 41.921875 -62.984375 C 40.796875 -64.691406 39.359375 -66.003906 37.609375 -66.921875 C 35.859375 -67.835938 33.929688 -68.457031 31.828125 -68.78125 C 29.734375 -69.113281 27.71875 -69.28125 25.78125 -69.28125 L 10.84375 -69.28125 L 10.84375 -43.453125 L 25.78125 -43.453125 C 27.957031 -43.453125 30.09375 -43.613281 32.1875 -43.9375 C 34.289062 -44.269531 36.175781 -44.910156 37.84375 -45.859375 C 39.519531 -46.816406 40.898438 -48.128906 41.984375 -49.796875 C 43.078125 -51.472656 43.625 -53.671875 43.625 -56.390625 Z M 46.25 -21.75 C 46.25 -27 44.546875 -30.816406 41.140625 -33.203125 C 37.742188 -35.597656 33.070312 -36.796875 27.125 -36.796875 L 10.84375 -36.796875 L 10.84375 -6.828125 L 27.125 -6.828125 C 33.070312 -6.828125 37.742188 -8.078125 41.140625 -10.578125 C 44.546875 -13.085938 46.25 -16.8125 46.25 -21.75 Z M 46.25 -21.75 "/></g></g></g><g fill="#d9d9d9" fill-opacity="0.4"><g transform="translate(301.297454, 223.940743)"><g><path d="M 43.453125 0 L 10.84375 0 L 10.84375 -6.828125 L 23.15625 -6.828125 L 23.15625 -69.28125 L 10.84375 -69.28125 L 10.84375 -76.109375 L 31.203125 -76.109375 L 31.203125 -6.828125 L 43.453125 -6.828125 Z M 43.453125 0 "/></g></g></g><g fill="#d9d9d9" fill-opacity="0.4"><g transform="translate(366.494547, 223.940743)"><g><path d="M 56.046875 -54.359375 L 26.65625 13.765625 C 25.132812 17.578125 22.992188 20.070312 20.234375 21.25 C 17.472656 22.4375 14.421875 23.03125 11.078125 23.03125 C 7.347656 23.03125 3.617188 22.351562 -0.109375 21 L 1.453125 14.109375 C 3.285156 14.890625 5.078125 15.441406 6.828125 15.765625 C 8.578125 16.097656 9.992188 16.265625 11.078125 16.265625 C 13.722656 16.265625 15.539062 15.625 16.53125 14.34375 C 17.519531 13.0625 18.382812 11.546875 19.125 9.796875 L 22.453125 1.578125 L -1.8125 -54.359375 L 7.640625 -54.359375 L 27.234375 -6.828125 L 46.484375 -54.359375 Z M 56.046875 -54.359375 "/></g></g></g><g fill="#d9d9d9" fill-opacity="0.4"><g transform="translate(431.69164, 223.940743)"><g><path d="M 54.9375 -17.328125 C 54.3125 -11.609375 52.0625 -7.066406 48.1875 -3.703125 C 44.320312 -0.335938 39.492188 1.34375 33.703125 1.34375 C 30.515625 1.34375 27.597656 0.816406 24.953125 -0.234375 C 22.316406 -1.285156 20.0625 -2.742188 18.1875 -4.609375 C 16.320312 -6.472656 14.875 -8.71875 13.84375 -11.34375 C 12.820312 -13.96875 12.3125 -16.832031 12.3125 -19.9375 L 12.3125 -47.53125 L 0 -47.53125 L 0 -54.359375 L 12.3125 -54.359375 L 12.3125 -76.109375 L 20.296875 -76.109375 L 20.296875 -54.359375 L 43.453125 -54.359375 L 43.453125 -47.53125 L 20.296875 -47.53125 L 20.296875 -19.9375 C 20.296875 -17.957031 20.613281 -16.09375 21.25 -14.34375 C 21.894531 -12.59375 22.789062 -11.054688 23.9375 -9.734375 C 25.082031 -8.410156 26.472656 -7.367188 28.109375 -6.609375 C 29.742188 -5.859375 31.609375 -5.484375 33.703125 -5.484375 C 37.671875 -5.484375 40.984375 -6.71875 43.640625 -9.1875 C 46.304688 -11.65625 47.835938 -14.851562 48.234375 -18.78125 Z M 54.9375 -17.328125 "/></g></g></g><g fill="#d9d9d9" fill-opacity="0.4"><g transform="translate(496.888733, 223.940743)"><g><path d="M 51.5 0 L 43.453125 0 L 43.453125 -33.53125 C 43.453125 -38.394531 42.398438 -42.164062 40.296875 -44.84375 C 38.203125 -47.53125 34.800781 -48.875 30.09375 -48.875 C 27.132812 -48.875 24.457031 -48.191406 22.0625 -46.828125 C 19.675781 -45.472656 17.644531 -43.65625 15.96875 -41.375 C 14.300781 -39.101562 13.03125 -36.5 12.15625 -33.5625 C 11.28125 -30.625 10.84375 -27.5625 10.84375 -24.375 L 10.84375 0 L 2.859375 0 L 2.859375 -76.109375 L 10.84375 -76.109375 L 10.84375 -40.703125 C 14.695312 -50.660156 21.5625 -55.640625 31.4375 -55.640625 C 44.8125 -55.640625 51.5 -48.269531 51.5 -33.53125 Z M 51.5 0 "/></g></g></g><g fill="#d9d9d9" fill-opacity="0.4"><g transform="translate(562.085826, 223.940743)"><g><path d="M 7.984375 -24.375 C 8.566406 -18.625 10.664062 -14.035156 14.28125 -10.609375 C 17.90625 -7.191406 22.613281 -5.484375 28.40625 -5.484375 C 32.488281 -5.484375 36.125 -6.316406 39.3125 -7.984375 C 42.5 -9.660156 44.890625 -11.742188 46.484375 -14.234375 L 52.078125 -10.375 C 49.359375 -6.570312 46.113281 -3.664062 42.34375 -1.65625 C 38.570312 0.34375 33.925781 1.34375 28.40625 1.34375 C 24.207031 1.34375 20.359375 0.644531 16.859375 -0.75 C 13.359375 -2.15625 10.332031 -4.109375 7.78125 -6.609375 C 5.238281 -9.117188 3.265625 -12.101562 1.859375 -15.5625 C 0.460938 -19.03125 -0.234375 -22.882812 -0.234375 -27.125 C -0.234375 -31.238281 0.394531 -35.035156 1.65625 -38.515625 C 2.925781 -41.992188 4.753906 -45.003906 7.140625 -47.546875 C 9.535156 -50.097656 12.441406 -52.082031 15.859375 -53.5 C 19.285156 -54.925781 23.117188 -55.640625 27.359375 -55.640625 C 31.984375 -55.640625 36.023438 -54.859375 39.484375 -53.296875 C 42.941406 -51.742188 45.828125 -49.597656 48.140625 -46.859375 C 50.453125 -44.117188 52.160156 -40.84375 53.265625 -37.03125 C 54.378906 -33.21875 54.9375 -29 54.9375 -24.375 Z M 46.484375 -31.203125 C 45.585938 -37.148438 43.425781 -41.582031 40 -44.5 C 36.582031 -47.414062 32.367188 -48.875 27.359375 -48.875 C 24.785156 -48.875 22.410156 -48.453125 20.234375 -47.609375 C 18.054688 -46.773438 16.128906 -45.582031 14.453125 -44.03125 C 12.785156 -42.476562 11.390625 -40.601562 10.265625 -38.40625 C 9.140625 -36.207031 8.421875 -33.804688 8.109375 -31.203125 Z M 46.484375 -31.203125 "/></g></g></g><g fill="#d9d9d9" fill-opacity="0.4"><g transform="translate(627.282919, 223.940743)"><g/></g></g><g fill="#d9d9d9" fill-opacity="0.4"><g transform="translate(692.480012, 223.940743)"><g><path d="M 54.359375 -50.390625 L 47.53125 -50.390625 L 47.53125 -69.28125 L 31.203125 -69.28125 L 31.203125 -6.828125 L 43.453125 -6.828125 L 43.453125 0 L 10.84375 0 L 10.84375 -6.828125 L 23.15625 -6.828125 L 23.15625 -69.28125 L 6.828125 -69.28125 L 6.828125 -50.390625 L 0 -50.390625 L 0 -76.109375 L 54.359375 -76.109375 Z M 54.359375 -50.390625 "/></g></g></g><g fill="#d9d9d9" fill-opacity="0.4"><g transform="translate(757.677105, 223.940743)"><g><path d="M 51.5 0 L 43.453125 0 L 43.453125 -33.53125 C 43.453125 -38.394531 42.398438 -42.164062 40.296875 -44.84375 C 38.203125 -47.53125 34.800781 -48.875 30.09375 -48.875 C 27.132812 -48.875 24.457031 -48.191406 22.0625 -46.828125 C 19.675781 -45.472656 17.644531 -43.65625 15.96875 -41.375 C 14.300781 -39.101562 13.03125 -36.5 12.15625 -33.5625 C 11.28125 -30.625 10.84375 -27.5625 10.84375 -24.375 L 10.84375 0 L 2.859375 0 L 2.859375 -76.109375 L 10.84375 -76.109375 L 10.84375 -40.703125 C 14.695312 -50.660156 21.5625 -55.640625 31.4375 -55.640625 C 44.8125 -55.640625 51.5 -48.269531 51.5 -33.53125 Z M 51.5 0 "/></g></g></g><g fill="#d9d9d9" fill-opacity="0.4"><g transform="translate(822.874199, 223.940743)"><g><path d="M 55.75 -27 C 55.75 -22.757812 55.078125 -18.910156 53.734375 -15.453125 C 52.398438 -11.992188 50.476562 -9.03125 47.96875 -6.5625 C 45.457031 -4.09375 42.453125 -2.15625 38.953125 -0.75 C 35.453125 0.644531 31.546875 1.34375 27.234375 1.34375 C 22.992188 1.34375 19.125 0.644531 15.625 -0.75 C 12.125 -2.15625 9.117188 -4.09375 6.609375 -6.5625 C 4.109375 -9.03125 2.1875 -11.992188 0.84375 -15.453125 C -0.5 -18.910156 -1.171875 -22.757812 -1.171875 -27 C -1.171875 -31.125 -0.5 -34.960938 0.84375 -38.515625 C 2.1875 -42.078125 4.109375 -45.109375 6.609375 -47.609375 C 9.117188 -50.117188 12.125 -52.082031 15.625 -53.5 C 19.125 -54.925781 22.992188 -55.640625 27.234375 -55.640625 C 31.546875 -55.640625 35.453125 -54.925781 38.953125 -53.5 C 42.453125 -52.082031 45.457031 -50.117188 47.96875 -47.609375 C 50.476562 -45.109375 52.398438 -42.078125 53.734375 -38.515625 C 55.078125 -34.960938 55.75 -31.125 55.75 -27 Z M 47.765625 -27 C 47.765625 -30.113281 47.304688 -32.984375 46.390625 -35.609375 C 45.472656 -38.234375 44.117188 -40.535156 42.328125 -42.515625 C 40.546875 -44.492188 38.378906 -46.046875 35.828125 -47.171875 C 33.285156 -48.304688 30.421875 -48.875 27.234375 -48.875 C 24.046875 -48.875 21.175781 -48.304688 18.625 -47.171875 C 16.082031 -46.046875 13.9375 -44.492188 12.1875 -42.515625 C 10.4375 -40.535156 9.101562 -38.234375 8.1875 -35.609375 C 7.28125 -32.984375 6.828125 -30.113281 6.828125 -27 C 6.828125 -23.894531 7.28125 -21.03125 8.1875 -18.40625 C 9.101562 -15.78125 10.4375 -13.515625 12.1875 -11.609375 C 13.9375 -9.703125 16.082031 -8.203125 18.625 -7.109375 C 21.175781 -6.023438 24.046875 -5.484375 27.234375 -5.484375 C 30.421875 -5.484375 33.285156 -6.023438 35.828125 -7.109375 C 38.378906 -8.203125 40.546875 -9.703125 42.328125 -11.609375 C 44.117188 -13.515625 45.472656 -15.78125 46.390625 -18.40625 C 47.304688 -21.03125 47.765625 -23.894531 47.765625 -27 Z M 47.765625 -27 "/></g></g></g><g fill="#d9d9d9" fill-opacity="0.4"><g transform="translate(888.071292, 223.940743)"><g><path d="M 54.359375 0 L 46.359375 0 L 46.359375 -39.078125 C 46.359375 -42.179688 45.8125 -44.585938 44.71875 -46.296875 C 43.632812 -48.015625 42.0625 -48.875 40 -48.875 C 36.96875 -48.875 34.742188 -47.28125 33.328125 -44.09375 C 31.910156 -40.90625 31.203125 -36.429688 31.203125 -30.671875 L 31.203125 0 L 23.15625 0 L 23.15625 -39.078125 C 23.15625 -42.179688 22.597656 -44.585938 21.484375 -46.296875 C 20.378906 -48.015625 18.796875 -48.875 16.734375 -48.875 C 14.828125 -48.875 13.3125 -48.304688 12.1875 -47.171875 C 11.0625 -46.046875 10.175781 -44.609375 9.53125 -42.859375 C 8.894531 -41.109375 8.476562 -39.164062 8.28125 -37.03125 C 8.082031 -34.894531 7.984375 -32.773438 7.984375 -30.671875 L 7.984375 0 L 0 0 L 0 -54.359375 L 7.984375 -54.359375 L 7.984375 -46.484375 C 9.660156 -52.585938 13.296875 -55.640625 18.890625 -55.640625 C 24.222656 -55.640625 27.84375 -52.972656 29.75 -47.640625 C 32.382812 -52.972656 36.113281 -55.640625 40.9375 -55.640625 C 45.5625 -55.640625 48.953125 -54.265625 51.109375 -51.515625 C 53.273438 -48.773438 54.359375 -44.628906 54.359375 -39.078125 Z M 54.359375 0 "/></g></g></g><g fill="#d9d9d9" fill-opacity="0.4"><g transform="translate(953.268385, 223.940743)"><g><path d="M 54.359375 -27.125 C 54.359375 -22.882812 53.695312 -19.03125 52.375 -15.5625 C 51.050781 -12.101562 49.191406 -9.117188 46.796875 -6.609375 C 44.410156 -4.109375 41.523438 -2.15625 38.140625 -0.75 C 34.753906 0.644531 30.960938 1.34375 26.765625 1.34375 C 23.890625 1.34375 21.097656 0.816406 18.390625 -0.234375 C 15.691406 -1.285156 13.175781 -2.84375 10.84375 -4.90625 L 10.84375 21.75 L 2.859375 21.75 L 2.859375 -54.359375 L 10.84375 -54.359375 L 10.84375 -49.34375 C 15.78125 -53.539062 21.085938 -55.640625 26.765625 -55.640625 C 30.960938 -55.640625 34.753906 -54.945312 38.140625 -53.5625 C 41.523438 -52.1875 44.410156 -50.222656 46.796875 -47.671875 C 49.191406 -45.128906 51.050781 -42.097656 52.375 -38.578125 C 53.695312 -35.054688 54.359375 -31.238281 54.359375 -27.125 Z M 46.359375 -27.125 C 46.359375 -30.15625 45.941406 -33 45.109375 -35.65625 C 44.273438 -38.320312 43.019531 -40.625 41.34375 -42.5625 C 39.675781 -44.507812 37.625 -46.046875 35.1875 -47.171875 C 32.757812 -48.304688 29.953125 -48.875 26.765625 -48.875 C 23.734375 -48.875 20.90625 -48.304688 18.28125 -47.171875 C 15.65625 -46.046875 13.175781 -44.222656 10.84375 -41.703125 L 10.84375 -12.53125 C 13.175781 -10.007812 15.65625 -8.203125 18.28125 -7.109375 C 20.90625 -6.023438 23.734375 -5.484375 26.765625 -5.484375 C 29.953125 -5.484375 32.757812 -6.046875 35.1875 -7.171875 C 37.625 -8.296875 39.675781 -9.832031 41.34375 -11.78125 C 43.019531 -13.726562 44.273438 -16.007812 45.109375 -18.625 C 45.941406 -21.25 46.359375 -24.082031 46.359375 -27.125 Z M 46.359375 -27.125 "/></g></g></g><g fill="#d9d9d9" fill-opacity="0.4"><g transform="translate(1018.465478, 223.940743)"><g><path d="M 52.890625 -15.046875 C 52.890625 -11.859375 52.09375 -9.210938 50.5 -7.109375 C 48.90625 -5.015625 46.851562 -3.34375 44.34375 -2.09375 C 41.84375 -0.851562 39.046875 0.0234375 35.953125 0.546875 C 32.859375 1.078125 29.835938 1.34375 26.890625 1.34375 C 21.953125 1.34375 17.03125 0.625 12.125 -0.8125 C 7.226562 -2.25 2.992188 -4.132812 -0.578125 -6.46875 L 2.96875 -13.359375 C 6.976562 -10.828125 10.925781 -8.878906 14.8125 -7.515625 C 18.695312 -6.160156 22.722656 -5.484375 26.890625 -5.484375 C 38.898438 -5.484375 44.90625 -8.59375 44.90625 -14.8125 C 44.90625 -16.332031 44.410156 -17.566406 43.421875 -18.515625 C 42.429688 -19.460938 41.097656 -20.238281 39.421875 -20.84375 C 37.753906 -21.445312 35.835938 -21.921875 33.671875 -22.265625 C 31.515625 -22.617188 29.253906 -22.953125 26.890625 -23.265625 C 23.859375 -23.691406 20.84375 -24.195312 17.84375 -24.78125 C 14.851562 -25.363281 12.125 -26.238281 9.65625 -27.40625 C 7.1875 -28.570312 5.203125 -30.125 3.703125 -32.0625 C 2.203125 -34.007812 1.453125 -36.582031 1.453125 -39.78125 C 1.453125 -42.5 2.140625 -44.847656 3.515625 -46.828125 C 4.898438 -48.804688 6.75 -50.457031 9.0625 -51.78125 C 11.375 -53.101562 14.085938 -54.078125 17.203125 -54.703125 C 20.316406 -55.328125 23.546875 -55.640625 26.890625 -55.640625 C 31.671875 -55.640625 35.945312 -55.082031 39.71875 -53.96875 C 43.488281 -52.863281 46.890625 -51.28125 49.921875 -49.21875 L 46.71875 -42.984375 C 43.601562 -45.160156 40.453125 -46.6875 37.265625 -47.5625 C 34.078125 -48.4375 30.617188 -48.875 26.890625 -48.875 C 25.210938 -48.875 23.351562 -48.726562 21.3125 -48.4375 C 19.269531 -48.144531 17.375 -47.640625 15.625 -46.921875 C 13.875 -46.203125 12.40625 -45.265625 11.21875 -44.109375 C 10.039062 -42.960938 9.453125 -41.519531 9.453125 -39.78125 C 9.453125 -38.257812 9.945312 -37.039062 10.9375 -36.125 C 11.925781 -35.21875 13.253906 -34.460938 14.921875 -33.859375 C 16.597656 -33.253906 18.515625 -32.773438 20.671875 -32.421875 C 22.828125 -32.078125 25.09375 -31.75 27.46875 -31.4375 C 30.425781 -31.007812 33.410156 -30.503906 36.421875 -29.921875 C 39.429688 -29.335938 42.171875 -28.476562 44.640625 -27.34375 C 47.109375 -26.21875 49.097656 -24.679688 50.609375 -22.734375 C 52.128906 -20.796875 52.890625 -18.234375 52.890625 -15.046875 Z M 52.890625 -15.046875 "/></g></g></g><g fill="#d9d9d9" fill-opacity="0.4"><g transform="translate(1083.662571, 223.940743)"><g><path d="M 55.75 -27 C 55.75 -22.757812 55.078125 -18.910156 53.734375 -15.453125 C 52.398438 -11.992188 50.476562 -9.03125 47.96875 -6.5625 C 45.457031 -4.09375 42.453125 -2.15625 38.953125 -0.75 C 35.453125 0.644531 31.546875 1.34375 27.234375 1.34375 C 22.992188 1.34375 19.125 0.644531 15.625 -0.75 C 12.125 -2.15625 9.117188 -4.09375 6.609375 -6.5625 C 4.109375 -9.03125 2.1875 -11.992188 0.84375 -15.453125 C -0.5 -18.910156 -1.171875 -22.757812 -1.171875 -27 C -1.171875 -31.125 -0.5 -34.960938 0.84375 -38.515625 C 2.1875 -42.078125 4.109375 -45.109375 6.609375 -47.609375 C 9.117188 -50.117188 12.125 -52.082031 15.625 -53.5 C 19.125 -54.925781 22.992188 -55.640625 27.234375 -55.640625 C 31.546875 -55.640625 35.453125 -54.925781 38.953125 -53.5 C 42.453125 -52.082031 45.457031 -50.117188 47.96875 -47.609375 C 50.476562 -45.109375 52.398438 -42.078125 53.734375 -38.515625 C 55.078125 -34.960938 55.75 -31.125 55.75 -27 Z M 47.765625 -27 C 47.765625 -30.113281 47.304688 -32.984375 46.390625 -35.609375 C 45.472656 -38.234375 44.117188 -40.535156 42.328125 -42.515625 C 40.546875 -44.492188 38.378906 -46.046875 35.828125 -47.171875 C 33.285156 -48.304688 30.421875 -48.875 27.234375 -48.875 C 24.046875 -48.875 21.175781 -48.304688 18.625 -47.171875 C 16.082031 -46.046875 13.9375 -44.492188 12.1875 -42.515625 C 10.4375 -40.535156 9.101562 -38.234375 8.1875 -35.609375 C 7.28125 -32.984375 6.828125 -30.113281 6.828125 -27 C 6.828125 -23.894531 7.28125 -21.03125 8.1875 -18.40625 C 9.101562 -15.78125 10.4375 -13.515625 12.1875 -11.609375 C 13.9375 -9.703125 16.082031 -8.203125 18.625 -7.109375 C 21.175781 -6.023438 24.046875 -5.484375 27.234375 -5.484375 C 30.421875 -5.484375 33.285156 -6.023438 35.828125 -7.109375 C 38.378906 -8.203125 40.546875 -9.703125 42.328125 -11.609375 C 44.117188 -13.515625 45.472656 -15.78125 46.390625 -18.40625 C 47.304688 -21.03125 47.765625 -23.894531 47.765625 -27 Z M 47.765625 -27 "/></g></g></g><g fill="#d9d9d9" fill-opacity="0.4"><g transform="translate(1148.859664, 223.940743)"><g><path d="M 51.5 0 L 43.453125 0 L 43.453125 -33.53125 C 43.453125 -38.394531 42.398438 -42.164062 40.296875 -44.84375 C 38.203125 -47.53125 34.800781 -48.875 30.09375 -48.875 C 27.132812 -48.875 24.457031 -48.191406 22.0625 -46.828125 C 19.675781 -45.472656 17.644531 -43.65625 15.96875 -41.375 C 14.300781 -39.101562 13.03125 -36.5 12.15625 -33.5625 C 11.28125 -30.625 10.84375 -27.5625 10.84375 -24.375 L 10.84375 0 L 2.859375 0 L 2.859375 -54.359375 L 10.84375 -54.359375 L 10.84375 -40.703125 C 14.695312 -50.660156 21.5625 -55.640625 31.4375 -55.640625 C 44.8125 -55.640625 51.5 -48.269531 51.5 -33.53125 Z M 51.5 0 "/></g></g></g><g fill="#d9d9d9" fill-opacity="1"><g transform="translate(230.821707, 218.662099)"><g><path d="M 54.234375 -21.75 C 54.234375 -14.476562 51.878906 -9.035156 47.171875 -5.421875 C 42.472656 -1.804688 35.789062 0 27.125 0 L 2.859375 0 L 2.859375 -76.109375 L 25.78125 -76.109375 C 28.96875 -76.109375 32.097656 -75.84375 35.171875 -75.3125 C 38.242188 -74.789062 40.992188 -73.8125 43.421875 -72.375 C 45.847656 -70.9375 47.816406 -68.941406 49.328125 -66.390625 C 50.847656 -63.847656 51.609375 -60.515625 51.609375 -56.390625 C 51.609375 -48.503906 47.664062 -43.117188 39.78125 -40.234375 C 49.414062 -37.285156 54.234375 -31.125 54.234375 -21.75 Z M 43.625 -56.390625 C 43.625 -59.078125 43.054688 -61.273438 41.921875 -62.984375 C 40.796875 -64.691406 39.359375 -66.003906 37.609375 -66.921875 C 35.859375 -67.835938 33.929688 -68.457031 31.828125 -68.78125 C 29.734375 -69.113281 27.71875 -69.28125 25.78125 -69.28125 L 10.84375 -69.28125 L 10.84375 -43.453125 L 25.78125 -43.453125 C 27.957031 -43.453125 30.09375 -43.613281 32.1875 -43.9375 C 34.289062 -44.269531 36.175781 -44.910156 37.84375 -45.859375 C 39.519531 -46.816406 40.898438 -48.128906 41.984375 -49.796875 C 43.078125 -51.472656 43.625 -53.671875 43.625 -56.390625 Z M 46.25 -21.75 C 46.25 -27 44.546875 -30.816406 41.140625 -33.203125 C 37.742188 -35.597656 33.070312 -36.796875 27.125 -36.796875 L 10.84375 -36.796875 L 10.84375 -6.828125 L 27.125 -6.828125 C 33.070312 -6.828125 37.742188 -8.078125 41.140625 -10.578125 C 44.546875 -13.085938 46.25 -16.8125 46.25 -21.75 Z M 46.25 -21.75 "/></g></g></g><g fill="#d9d9d9" fill-opacity="1"><g transform="translate(296.0188, 218.662099)"><g><path d="M 43.453125 0 L 10.84375 0 L 10.84375 -6.828125 L 23.15625 -6.828125 L 23.15625 -69.28125 L 10.84375 -69.28125 L 10.84375 -76.109375 L 31.203125 -76.109375 L 31.203125 -6.828125 L 43.453125 -6.828125 Z M 43.453125 0 "/></g></g></g><g fill="#d9d9d9" fill-opacity="1"><g transform="translate(361.215894, 218.662099)"><g><path d="M 56.046875 -54.359375 L 26.65625 13.765625 C 25.132812 17.578125 22.992188 20.070312 20.234375 21.25 C 17.472656 22.4375 14.421875 23.03125 11.078125 23.03125 C 7.347656 23.03125 3.617188 22.351562 -0.109375 21 L 1.453125 14.109375 C 3.285156 14.890625 5.078125 15.441406 6.828125 15.765625 C 8.578125 16.097656 9.992188 16.265625 11.078125 16.265625 C 13.722656 16.265625 15.539062 15.625 16.53125 14.34375 C 17.519531 13.0625 18.382812 11.546875 19.125 9.796875 L 22.453125 1.578125 L -1.8125 -54.359375 L 7.640625 -54.359375 L 27.234375 -6.828125 L 46.484375 -54.359375 Z M 56.046875 -54.359375 "/></g></g></g><g fill="#d9d9d9" fill-opacity="1"><g transform="translate(426.412987, 218.662099)"><g><path d="M 54.9375 -17.328125 C 54.3125 -11.609375 52.0625 -7.066406 48.1875 -3.703125 C 44.320312 -0.335938 39.492188 1.34375 33.703125 1.34375 C 30.515625 1.34375 27.597656 0.816406 24.953125 -0.234375 C 22.316406 -1.285156 20.0625 -2.742188 18.1875 -4.609375 C 16.320312 -6.472656 14.875 -8.71875 13.84375 -11.34375 C 12.820312 -13.96875 12.3125 -16.832031 12.3125 -19.9375 L 12.3125 -47.53125 L 0 -47.53125 L 0 -54.359375 L 12.3125 -54.359375 L 12.3125 -76.109375 L 20.296875 -76.109375 L 20.296875 -54.359375 L 43.453125 -54.359375 L 43.453125 -47.53125 L 20.296875 -47.53125 L 20.296875 -19.9375 C 20.296875 -17.957031 20.613281 -16.09375 21.25 -14.34375 C 21.894531 -12.59375 22.789062 -11.054688 23.9375 -9.734375 C 25.082031 -8.410156 26.472656 -7.367188 28.109375 -6.609375 C 29.742188 -5.859375 31.609375 -5.484375 33.703125 -5.484375 C 37.671875 -5.484375 40.984375 -6.71875 43.640625 -9.1875 C 46.304688 -11.65625 47.835938 -14.851562 48.234375 -18.78125 Z M 54.9375 -17.328125 "/></g></g></g><g fill="#d9d9d9" fill-opacity="1"><g transform="translate(491.61008, 218.662099)"><g><path d="M 51.5 0 L 43.453125 0 L 43.453125 -33.53125 C 43.453125 -38.394531 42.398438 -42.164062 40.296875 -44.84375 C 38.203125 -47.53125 34.800781 -48.875 30.09375 -48.875 C 27.132812 -48.875 24.457031 -48.191406 22.0625 -46.828125 C 19.675781 -45.472656 17.644531 -43.65625 15.96875 -41.375 C 14.300781 -39.101562 13.03125 -36.5 12.15625 -33.5625 C 11.28125 -30.625 10.84375 -27.5625 10.84375 -24.375 L 10.84375 0 L 2.859375 0 L 2.859375 -76.109375 L 10.84375 -76.109375 L 10.84375 -40.703125 C 14.695312 -50.660156 21.5625 -55.640625 31.4375 -55.640625 C 44.8125 -55.640625 51.5 -48.269531 51.5 -33.53125 Z M 51.5 0 "/></g></g></g><g fill="#d9d9d9" fill-opacity="1"><g transform="translate(556.807173, 218.662099)"><g><path d="M 7.984375 -24.375 C 8.566406 -18.625 10.664062 -14.035156 14.28125 -10.609375 C 17.90625 -7.191406 22.613281 -5.484375 28.40625 -5.484375 C 32.488281 -5.484375 36.125 -6.316406 39.3125 -7.984375 C 42.5 -9.660156 44.890625 -11.742188 46.484375 -14.234375 L 52.078125 -10.375 C 49.359375 -6.570312 46.113281 -3.664062 42.34375 -1.65625 C 38.570312 0.34375 33.925781 1.34375 28.40625 1.34375 C 24.207031 1.34375 20.359375 0.644531 16.859375 -0.75 C 13.359375 -2.15625 10.332031 -4.109375 7.78125 -6.609375 C 5.238281 -9.117188 3.265625 -12.101562 1.859375 -15.5625 C 0.460938 -19.03125 -0.234375 -22.882812 -0.234375 -27.125 C -0.234375 -31.238281 0.394531 -35.035156 1.65625 -38.515625 C 2.925781 -41.992188 4.753906 -45.003906 7.140625 -47.546875 C 9.535156 -50.097656 12.441406 -52.082031 15.859375 -53.5 C 19.285156 -54.925781 23.117188 -55.640625 27.359375 -55.640625 C 31.984375 -55.640625 36.023438 -54.859375 39.484375 -53.296875 C 42.941406 -51.742188 45.828125 -49.597656 48.140625 -46.859375 C 50.453125 -44.117188 52.160156 -40.84375 53.265625 -37.03125 C 54.378906 -33.21875 54.9375 -29 54.9375 -24.375 Z M 46.484375 -31.203125 C 45.585938 -37.148438 43.425781 -41.582031 40 -44.5 C 36.582031 -47.414062 32.367188 -48.875 27.359375 -48.875 C 24.785156 -48.875 22.410156 -48.453125 20.234375 -47.609375 C 18.054688 -46.773438 16.128906 -45.582031 14.453125 -44.03125 C 12.785156 -42.476562 11.390625 -40.601562 10.265625 -38.40625 C 9.140625 -36.207031 8.421875 -33.804688 8.109375 -31.203125 Z M 46.484375 -31.203125 "/></g></g></g><g fill="#d9d9d9" fill-opacity="1"><g transform="translate(622.004266, 218.662099)"><g/></g></g><g fill="#d9d9d9" fill-opacity="1"><g transform="translate(687.201359, 218.662099)"><g><path d="M 54.359375 -50.390625 L 47.53125 -50.390625 L 47.53125 -69.28125 L 31.203125 -69.28125 L 31.203125 -6.828125 L 43.453125 -6.828125 L 43.453125 0 L 10.84375 0 L 10.84375 -6.828125 L 23.15625 -6.828125 L 23.15625 -69.28125 L 6.828125 -69.28125 L 6.828125 -50.390625 L 0 -50.390625 L 0 -76.109375 L 54.359375 -76.109375 Z M 54.359375 -50.390625 "/></g></g></g><g fill="#d9d9d9" fill-opacity="1"><g transform="translate(752.398452, 218.662099)"><g><path d="M 51.5 0 L 43.453125 0 L 43.453125 -33.53125 C 43.453125 -38.394531 42.398438 -42.164062 40.296875 -44.84375 C 38.203125 -47.53125 34.800781 -48.875 30.09375 -48.875 C 27.132812 -48.875 24.457031 -48.191406 22.0625 -46.828125 C 19.675781 -45.472656 17.644531 -43.65625 15.96875 -41.375 C 14.300781 -39.101562 13.03125 -36.5 12.15625 -33.5625 C 11.28125 -30.625 10.84375 -27.5625 10.84375 -24.375 L 10.84375 0 L 2.859375 0 L 2.859375 -76.109375 L 10.84375 -76.109375 L 10.84375 -40.703125 C 14.695312 -50.660156 21.5625 -55.640625 31.4375 -55.640625 C 44.8125 -55.640625 51.5 -48.269531 51.5 -33.53125 Z M 51.5 0 "/></g></g></g><g fill="#d9d9d9" fill-opacity="1"><g transform="translate(817.595545, 218.662099)"><g><path d="M 55.75 -27 C 55.75 -22.757812 55.078125 -18.910156 53.734375 -15.453125 C 52.398438 -11.992188 50.476562 -9.03125 47.96875 -6.5625 C 45.457031 -4.09375 42.453125 -2.15625 38.953125 -0.75 C 35.453125 0.644531 31.546875 1.34375 27.234375 1.34375 C 22.992188 1.34375 19.125 0.644531 15.625 -0.75 C 12.125 -2.15625 9.117188 -4.09375 6.609375 -6.5625 C 4.109375 -9.03125 2.1875 -11.992188 0.84375 -15.453125 C -0.5 -18.910156 -1.171875 -22.757812 -1.171875 -27 C -1.171875 -31.125 -0.5 -34.960938 0.84375 -38.515625 C 2.1875 -42.078125 4.109375 -45.109375 6.609375 -47.609375 C 9.117188 -50.117188 12.125 -52.082031 15.625 -53.5 C 19.125 -54.925781 22.992188 -55.640625 27.234375 -55.640625 C 31.546875 -55.640625 35.453125 -54.925781 38.953125 -53.5 C 42.453125 -52.082031 45.457031 -50.117188 47.96875 -47.609375 C 50.476562 -45.109375 52.398438 -42.078125 53.734375 -38.515625 C 55.078125 -34.960938 55.75 -31.125 55.75 -27 Z M 47.765625 -27 C 47.765625 -30.113281 47.304688 -32.984375 46.390625 -35.609375 C 45.472656 -38.234375 44.117188 -40.535156 42.328125 -42.515625 C 40.546875 -44.492188 38.378906 -46.046875 35.828125 -47.171875 C 33.285156 -48.304688 30.421875 -48.875 27.234375 -48.875 C 24.046875 -48.875 21.175781 -48.304688 18.625 -47.171875 C 16.082031 -46.046875 13.9375 -44.492188 12.1875 -42.515625 C 10.4375 -40.535156 9.101562 -38.234375 8.1875 -35.609375 C 7.28125 -32.984375 6.828125 -30.113281 6.828125 -27 C 6.828125 -23.894531 7.28125 -21.03125 8.1875 -18.40625 C 9.101562 -15.78125 10.4375 -13.515625 12.1875 -11.609375 C 13.9375 -9.703125 16.082031 -8.203125 18.625 -7.109375 C 21.175781 -6.023438 24.046875 -5.484375 27.234375 -5.484375 C 30.421875 -5.484375 33.285156 -6.023438 35.828125 -7.109375 C 38.378906 -8.203125 40.546875 -9.703125 42.328125 -11.609375 C 44.117188 -13.515625 45.472656 -15.78125 46.390625 -18.40625 C 47.304688 -21.03125 47.765625 -23.894531 47.765625 -27 Z M 47.765625 -27 "/></g></g></g><g fill="#d9d9d9" fill-opacity="1"><g transform="translate(882.792638, 218.662099)"><g><path d="M 54.359375 0 L 46.359375 0 L 46.359375 -39.078125 C 46.359375 -42.179688 45.8125 -44.585938 44.71875 -46.296875 C 43.632812 -48.015625 42.0625 -48.875 40 -48.875 C 36.96875 -48.875 34.742188 -47.28125 33.328125 -44.09375 C 31.910156 -40.90625 31.203125 -36.429688 31.203125 -30.671875 L 31.203125 0 L 23.15625 0 L 23.15625 -39.078125 C 23.15625 -42.179688 22.597656 -44.585938 21.484375 -46.296875 C 20.378906 -48.015625 18.796875 -48.875 16.734375 -48.875 C 14.828125 -48.875 13.3125 -48.304688 12.1875 -47.171875 C 11.0625 -46.046875 10.175781 -44.609375 9.53125 -42.859375 C 8.894531 -41.109375 8.476562 -39.164062 8.28125 -37.03125 C 8.082031 -34.894531 7.984375 -32.773438 7.984375 -30.671875 L 7.984375 0 L 0 0 L 0 -54.359375 L 7.984375 -54.359375 L 7.984375 -46.484375 C 9.660156 -52.585938 13.296875 -55.640625 18.890625 -55.640625 C 24.222656 -55.640625 27.84375 -52.972656 29.75 -47.640625 C 32.382812 -52.972656 36.113281 -55.640625 40.9375 -55.640625 C 45.5625 -55.640625 48.953125 -54.265625 51.109375 -51.515625 C 53.273438 -48.773438 54.359375 -44.628906 54.359375 -39.078125 Z M 54.359375 0 "/></g></g></g><g fill="#d9d9d9" fill-opacity="1"><g transform="translate(947.989732, 218.662099)"><g><path d="M 54.359375 -27.125 C 54.359375 -22.882812 53.695312 -19.03125 52.375 -15.5625 C 51.050781 -12.101562 49.191406 -9.117188 46.796875 -6.609375 C 44.410156 -4.109375 41.523438 -2.15625 38.140625 -0.75 C 34.753906 0.644531 30.960938 1.34375 26.765625 1.34375 C 23.890625 1.34375 21.097656 0.816406 18.390625 -0.234375 C 15.691406 -1.285156 13.175781 -2.84375 10.84375 -4.90625 L 10.84375 21.75 L 2.859375 21.75 L 2.859375 -54.359375 L 10.84375 -54.359375 L 10.84375 -49.34375 C 15.78125 -53.539062 21.085938 -55.640625 26.765625 -55.640625 C 30.960938 -55.640625 34.753906 -54.945312 38.140625 -53.5625 C 41.523438 -52.1875 44.410156 -50.222656 46.796875 -47.671875 C 49.191406 -45.128906 51.050781 -42.097656 52.375 -38.578125 C 53.695312 -35.054688 54.359375 -31.238281 54.359375 -27.125 Z M 46.359375 -27.125 C 46.359375 -30.15625 45.941406 -33 45.109375 -35.65625 C 44.273438 -38.320312 43.019531 -40.625 41.34375 -42.5625 C 39.675781 -44.507812 37.625 -46.046875 35.1875 -47.171875 C 32.757812 -48.304688 29.953125 -48.875 26.765625 -48.875 C 23.734375 -48.875 20.90625 -48.304688 18.28125 -47.171875 C 15.65625 -46.046875 13.175781 -44.222656 10.84375 -41.703125 L 10.84375 -12.53125 C 13.175781 -10.007812 15.65625 -8.203125 18.28125 -7.109375 C 20.90625 -6.023438 23.734375 -5.484375 26.765625 -5.484375 C 29.953125 -5.484375 32.757812 -6.046875 35.1875 -7.171875 C 37.625 -8.296875 39.675781 -9.832031 41.34375 -11.78125 C 43.019531 -13.726562 44.273438 -16.007812 45.109375 -18.625 C 45.941406 -21.25 46.359375 -24.082031 46.359375 -27.125 Z M 46.359375 -27.125 "/></g></g></g><g fill="#d9d9d9" fill-opacity="1"><g transform="translate(1013.186825, 218.662099)"><g><path d="M 52.890625 -15.046875 C 52.890625 -11.859375 52.09375 -9.210938 50.5 -7.109375 C 48.90625 -5.015625 46.851562 -3.34375 44.34375 -2.09375 C 41.84375 -0.851562 39.046875 0.0234375 35.953125 0.546875 C 32.859375 1.078125 29.835938 1.34375 26.890625 1.34375 C 21.953125 1.34375 17.03125 0.625 12.125 -0.8125 C 7.226562 -2.25 2.992188 -4.132812 -0.578125 -6.46875 L 2.96875 -13.359375 C 6.976562 -10.828125 10.925781 -8.878906 14.8125 -7.515625 C 18.695312 -6.160156 22.722656 -5.484375 26.890625 -5.484375 C 38.898438 -5.484375 44.90625 -8.59375 44.90625 -14.8125 C 44.90625 -16.332031 44.410156 -17.566406 43.421875 -18.515625 C 42.429688 -19.460938 41.097656 -20.238281 39.421875 -20.84375 C 37.753906 -21.445312 35.835938 -21.921875 33.671875 -22.265625 C 31.515625 -22.617188 29.253906 -22.953125 26.890625 -23.265625 C 23.859375 -23.691406 20.84375 -24.195312 17.84375 -24.78125 C 14.851562 -25.363281 12.125 -26.238281 9.65625 -27.40625 C 7.1875 -28.570312 5.203125 -30.125 3.703125 -32.0625 C 2.203125 -34.007812 1.453125 -36.582031 1.453125 -39.78125 C 1.453125 -42.5 2.140625 -44.847656 3.515625 -46.828125 C 4.898438 -48.804688 6.75 -50.457031 9.0625 -51.78125 C 11.375 -53.101562 14.085938 -54.078125 17.203125 -54.703125 C 20.316406 -55.328125 23.546875 -55.640625 26.890625 -55.640625 C 31.671875 -55.640625 35.945312 -55.082031 39.71875 -53.96875 C 43.488281 -52.863281 46.890625 -51.28125 49.921875 -49.21875 L 46.71875 -42.984375 C 43.601562 -45.160156 40.453125 -46.6875 37.265625 -47.5625 C 34.078125 -48.4375 30.617188 -48.875 26.890625 -48.875 C 25.210938 -48.875 23.351562 -48.726562 21.3125 -48.4375 C 19.269531 -48.144531 17.375 -47.640625 15.625 -46.921875 C 13.875 -46.203125 12.40625 -45.265625 11.21875 -44.109375 C 10.039062 -42.960938 9.453125 -41.519531 9.453125 -39.78125 C 9.453125 -38.257812 9.945312 -37.039062 10.9375 -36.125 C 11.925781 -35.21875 13.253906 -34.460938 14.921875 -33.859375 C 16.597656 -33.253906 18.515625 -32.773438 20.671875 -32.421875 C 22.828125 -32.078125 25.09375 -31.75 27.46875 -31.4375 C 30.425781 -31.007812 33.410156 -30.503906 36.421875 -29.921875 C 39.429688 -29.335938 42.171875 -28.476562 44.640625 -27.34375 C 47.109375 -26.21875 49.097656 -24.679688 50.609375 -22.734375 C 52.128906 -20.796875 52.890625 -18.234375 52.890625 -15.046875 Z M 52.890625 -15.046875 "/></g></g></g><g fill="#d9d9d9" fill-opacity="1"><g transform="translate(1078.383918, 218.662099)"><g><path d="M 55.75 -27 C 55.75 -22.757812 55.078125 -18.910156 53.734375 -15.453125 C 52.398438 -11.992188 50.476562 -9.03125 47.96875 -6.5625 C 45.457031 -4.09375 42.453125 -2.15625 38.953125 -0.75 C 35.453125 0.644531 31.546875 1.34375 27.234375 1.34375 C 22.992188 1.34375 19.125 0.644531 15.625 -0.75 C 12.125 -2.15625 9.117188 -4.09375 6.609375 -6.5625 C 4.109375 -9.03125 2.1875 -11.992188 0.84375 -15.453125 C -0.5 -18.910156 -1.171875 -22.757812 -1.171875 -27 C -1.171875 -31.125 -0.5 -34.960938 0.84375 -38.515625 C 2.1875 -42.078125 4.109375 -45.109375 6.609375 -47.609375 C 9.117188 -50.117188 12.125 -52.082031 15.625 -53.5 C 19.125 -54.925781 22.992188 -55.640625 27.234375 -55.640625 C 31.546875 -55.640625 35.453125 -54.925781 38.953125 -53.5 C 42.453125 -52.082031 45.457031 -50.117188 47.96875 -47.609375 C 50.476562 -45.109375 52.398438 -42.078125 53.734375 -38.515625 C 55.078125 -34.960938 55.75 -31.125 55.75 -27 Z M 47.765625 -27 C 47.765625 -30.113281 47.304688 -32.984375 46.390625 -35.609375 C 45.472656 -38.234375 44.117188 -40.535156 42.328125 -42.515625 C 40.546875 -44.492188 38.378906 -46.046875 35.828125 -47.171875 C 33.285156 -48.304688 30.421875 -48.875 27.234375 -48.875 C 24.046875 -48.875 21.175781 -48.304688 18.625 -47.171875 C 16.082031 -46.046875 13.9375 -44.492188 12.1875 -42.515625 C 10.4375 -40.535156 9.101562 -38.234375 8.1875 -35.609375 C 7.28125 -32.984375 6.828125 -30.113281 6.828125 -27 C 6.828125 -23.894531 7.28125 -21.03125 8.1875 -18.40625 C 9.101562 -15.78125 10.4375 -13.515625 12.1875 -11.609375 C 13.9375 -9.703125 16.082031 -8.203125 18.625 -7.109375 C 21.175781 -6.023438 24.046875 -5.484375 27.234375 -5.484375 C 30.421875 -5.484375 33.285156 -6.023438 35.828125 -7.109375 C 38.378906 -8.203125 40.546875 -9.703125 42.328125 -11.609375 C 44.117188 -13.515625 45.472656 -15.78125 46.390625 -18.40625 C 47.304688 -21.03125 47.765625 -23.894531 47.765625 -27 Z M 47.765625 -27 "/></g></g></g><g fill="#d9d9d9" fill-opacity="1"><g transform="translate(1143.581011, 218.662099)"><g><path d="M 51.5 0 L 43.453125 0 L 43.453125 -33.53125 C 43.453125 -38.394531 42.398438 -42.164062 40.296875 -44.84375 C 38.203125 -47.53125 34.800781 -48.875 30.09375 -48.875 C 27.132812 -48.875 24.457031 -48.191406 22.0625 -46.828125 C 19.675781 -45.472656 17.644531 -43.65625 15.96875 -41.375 C 14.300781 -39.101562 13.03125 -36.5 12.15625 -33.5625 C 11.28125 -30.625 10.84375 -27.5625 10.84375 -24.375 L 10.84375 0 L 2.859375 0 L 2.859375 -54.359375 L 10.84375 -54.359375 L 10.84375 -40.703125 C 14.695312 -50.660156 21.5625 -55.640625 31.4375 -55.640625 C 44.8125 -55.640625 51.5 -48.269531 51.5 -33.53125 Z M 51.5 0 "/></g></g></g></svg>